<mxfile host="app.diagrams.net" modified="2024-04-25T20:37:40.143Z" agent="Mozilla/5.0 (Windows NT 10.0; Win64; x64; rv:125.0) Gecko/20100101 Firefox/125.0" version="24.3.0" etag="ZtzCbTSXRngOPP9_NNry" type="github">
  <diagram name="Page-1" id="j5Q3Or9JJJ-L5ctEQe0k">
    <mxGraphModel>
      <root>
        <mxCell id="0" />
        <mxCell id="1" parent="0" />
      </root>
    </mxGraphModel>
  </diagram>
</mxfile>
